<?xml version="1.0" standalone="no"?>
<!DOCTYPE svg PUBLIC "-//W3C//DTD SVG 20010904//EN"
 "http://www.w3.org/TR/2001/REC-SVG-20010904/DTD/svg10.dtd">
<svg version="1.0" xmlns="http://www.w3.org/2000/svg"
 width="16.000000pt" height="16.000000pt" viewBox="0 0 16.000000 16.000000"
 preserveAspectRatio="xMidYMid meet">
<metadata>
Created by potrace 1.11, written by Peter Selinger 2001-2013
</metadata>
<g transform="translate(0.000000,16.000000) scale(0.001563,-0.001563)"
fill="#000000" stroke="none">
<path d="M2842 9668 c-66 -11 -169 -79 -155 -101 3 -6 1 -7 -4 -4 -14 9 -46
-35 -123 -168 -35 -60 -94 -164 -133 -230 -38 -66 -80 -138 -92 -160 -12 -22
-72 -125 -132 -230 -61 -104 -134 -230 -162 -280 -28 -49 -56 -97 -61 -105 -5
-8 -22 -37 -37 -65 -15 -27 -32 -58 -38 -67 -8 -14 -254 -440 -300 -520 -22
-37 -131 -223 -140 -239 -25 -41 -58 -104 -56 -108 2 -2 -2 -7 -7 -10 -5 -3
-36 -53 -69 -111 -33 -58 -101 -176 -151 -263 -51 -88 -92 -161 -92 -163 0 -1
-11 -20 -25 -40 -14 -20 -22 -40 -19 -45 3 -5 1 -9 -5 -9 -11 0 -58 -79 -53
-88 2 -2 -1 -8 -6 -11 -5 -3 -19 -22 -30 -41 -11 -19 -61 -107 -112 -195 -111
-192 -120 -207 -153 -264 -14 -25 -23 -49 -20 -54 3 -6 2 -8 -3 -5 -5 3 -45
-57 -89 -134 -44 -77 -90 -157 -101 -177 -138 -234 -172 -313 -197 -451 -38
-211 -20 -421 50 -600 14 -36 30 -70 37 -75 6 -6 12 -15 13 -22 2 -6 93 -168
204 -360 110 -191 266 -460 346 -598 79 -137 148 -257 153 -265 17 -28 153
-265 178 -310 13 -25 37 -65 52 -90 25 -42 194 -332 245 -425 74 -131 102
-174 110 -168 4 5 5 2 1 -5 -5 -7 -2 -21 6 -30 13 -17 21 -30 66 -111 13 -25
40 -73 60 -106 45 -77 51 -88 165 -286 78 -136 172 -299 297 -514 10 -16 43
-75 74 -130 32 -55 62 -103 69 -107 7 -4 9 -8 5 -8 -9 0 61 -122 75 -131 5 -3
8 -8 6 -10 -2 -4 31 -64 111 -204 128 -225 328 -271 483 -112 36 37 89 118
172 262 66 115 119 215 119 222 -1 7 2 10 7 7 5 -3 12 3 16 13 4 10 43 81 88
158 45 77 84 147 88 155 4 8 51 91 105 183 l99 169 -71 123 c-39 67 -75 120
-80 117 -5 -3 -6 0 -2 6 3 6 -9 35 -27 64 -19 29 -46 76 -61 103 -50 94 -92
165 -104 177 -7 7 -12 16 -12 21 0 5 -20 43 -45 84 -25 40 -45 78 -45 83 0 4
-3 10 -7 12 -5 2 -17 19 -27 38 -59 108 -71 130 -76 130 -3 0 -17 -20 -30 -45
-14 -24 -61 -106 -105 -182 -44 -76 -85 -147 -91 -158 -6 -11 -22 -39 -37 -62
-15 -24 -27 -45 -27 -49 0 -3 -9 -18 -20 -34 -11 -15 -17 -30 -13 -34 3 -3 1
-6 -5 -6 -6 0 -21 17 -32 37 -11 21 -29 52 -40 68 -11 17 -23 37 -27 45 -3 8
-78 139 -166 290 -88 151 -169 291 -179 310 -19 33 -111 191 -133 228 -6 9
-23 40 -38 67 -29 51 -87 154 -122 213 -84 143 -125 213 -125 216 0 10 -68
115 -72 111 -3 -3 -5 1 -5 8 0 7 -17 44 -39 81 -21 38 -52 91 -68 120 -15 28
-34 58 -42 67 -8 8 -14 19 -14 22 0 7 -88 163 -122 215 -10 15 -27 45 -38 67
-12 22 -31 56 -43 77 -12 20 -47 80 -78 135 -31 54 -98 170 -149 258 -138 238
-152 265 -146 278 3 7 17 30 31 52 14 22 28 46 32 54 7 15 127 226 143 251 9
14 74 127 115 200 11 19 30 51 41 70 12 19 33 55 46 80 14 25 45 79 70 120 25
41 57 98 73 125 37 66 86 150 165 287 36 62 67 118 69 123 2 6 13 22 23 38 11
15 16 27 11 27 -4 0 -3 4 3 8 10 7 74 108 74 117 0 3 11 22 23 43 28 43 64
106 211 362 58 102 111 192 116 200 5 8 23 40 40 70 17 30 35 62 40 70 9 13
31 52 91 158 11 17 27 47 38 65 10 17 44 77 76 132 31 55 65 111 73 125 9 14
17 27 17 30 0 7 46 80 49 80 2 0 45 -73 97 -162 51 -90 97 -164 101 -166 4 -2
8 -9 8 -14 0 -13 123 -228 130 -228 3 1 47 74 98 163 51 89 99 173 107 187 96
163 295 511 295 515 0 2 11 21 25 41 14 20 25 43 25 51 0 18 -325 584 -332
578 -3 -3 -5 1 -5 8 0 7 -51 100 -113 207 -62 107 -124 215 -138 240 -51 93
-125 175 -185 206 -41 22 -106 31 -155 22z"/>
<path d="M7305 9671 c-80 -20 -160 -86 -218 -177 -22 -35 -135 -231 -199 -344
-14 -25 -90 -155 -168 -290 -78 -135 -151 -261 -161 -280 -11 -19 -29 -51 -40
-70 -20 -32 -258 -445 -867 -1500 -135 -234 -257 -445 -271 -470 -14 -24 -30
-53 -36 -62 -5 -10 -60 -105 -121 -211 -461 -795 -451 -774 -490 -997 -12 -69
-6 -266 10 -351 29 -156 57 -221 200 -462 25 -43 46 -80 46 -83 0 -3 8 -17 19
-32 10 -15 79 -133 153 -262 74 -129 296 -514 493 -855 197 -341 423 -732 502
-870 79 -137 149 -259 155 -270 7 -11 102 -175 211 -365 110 -190 209 -361
221 -381 12 -20 95 -166 186 -324 96 -167 185 -309 214 -341 143 -161 335
-140 465 51 16 22 108 179 206 350 98 171 188 326 200 345 18 29 393 678 471
817 13 23 53 92 89 153 36 61 65 115 65 121 0 5 5 9 10 9 6 0 10 4 10 8 0 5
55 103 121 218 67 115 135 234 152 264 17 30 117 204 222 385 105 182 247 427
315 545 68 118 189 328 269 465 80 138 158 281 173 318 91 215 95 551 10 771
-16 39 -124 238 -242 441 -117 204 -221 384 -230 400 -10 17 -58 100 -107 185
-131 226 -1047 1812 -1123 1945 -9 17 -126 219 -260 450 -134 231 -261 452
-283 490 -82 143 -139 210 -212 244 -50 23 -117 33 -160 22z m147 -1813 c51
-90 98 -170 103 -179 6 -9 20 -34 32 -55 11 -22 85 -149 163 -284 79 -135 154
-265 168 -290 14 -25 157 -273 319 -552 161 -279 301 -522 312 -540 10 -18
123 -214 250 -435 l233 -403 -365 -632 c-201 -348 -374 -649 -384 -668 -11
-19 -33 -57 -50 -85 -34 -57 -65 -110 -370 -640 -461 -800 -506 -876 -508
-873 -4 3 -235 401 -273 468 -34 60 -180 313 -522 905 -155 270 -325 564 -378
655 -52 91 -117 203 -145 250 -27 47 -61 105 -75 130 -14 25 -83 145 -154 268
l-128 222 128 223 c71 122 145 251 166 287 20 36 41 72 46 80 9 14 117 200
163 280 11 19 179 312 375 650 316 548 503 871 566 981 153 266 230 399 232
399 1 0 44 -73 96 -162z"/>
<path d="M7271 6251 c-47 -80 -141 -243 -209 -361 -144 -249 -119 -206 -302
-523 l-142 -247 238 -413 c131 -226 245 -425 253 -440 9 -16 21 -36 26 -45 23
-38 174 -300 192 -332 11 -19 24 -35 29 -34 7 1 205 331 231 384 4 8 28 51 54
95 157 268 449 778 449 785 0 7 -161 289 -207 362 -12 21 -23 40 -23 42 0 3
-14 29 -31 58 -18 29 -131 224 -251 433 -121 209 -221 381 -221 381 -1 1 -40
-64 -86 -145z"/>
<path d="M5031 9657 c-41 -13 -148 -111 -176 -160 -21 -37 -106 -186 -142
-247 -180 -310 -263 -454 -263 -457 0 -2 -11 -20 -24 -41 -13 -20 -49 -82 -80
-137 -32 -55 -61 -107 -66 -115 -5 -8 -22 -37 -38 -65 -40 -71 -55 -96 -179
-310 -61 -104 -120 -207 -132 -227 -27 -49 -43 -77 -131 -228 -40 -69 -86
-150 -103 -180 -16 -30 -36 -62 -43 -71 -8 -8 -14 -19 -14 -22 0 -4 -13 -28
-29 -54 -16 -27 -31 -54 -33 -62 -2 -8 -9 -21 -16 -30 -33 -39 -92 -153 -86
-164 4 -6 3 -9 -1 -4 -11 9 -117 -172 -108 -186 3 -5 2 -7 -4 -4 -5 3 -19 -11
-30 -31 -12 -20 -30 -54 -41 -74 -12 -20 -32 -55 -46 -77 -15 -22 -26 -43 -26
-46 0 -4 -44 -80 -79 -135 -8 -14 -16 -27 -16 -30 0 -3 -8 -16 -16 -30 -9 -14
-42 -70 -73 -125 -31 -55 -61 -107 -66 -115 -13 -21 -177 -305 -207 -360 -14
-25 -30 -51 -36 -57 -5 -7 -7 -13 -3 -13 3 0 -2 -9 -11 -20 -9 -10 -47 -74
-84 -141 -63 -113 -98 -203 -113 -289 -3 -19 -8 -46 -11 -60 -3 -14 -7 -74 -9
-135 -8 -226 36 -393 157 -600 13 -22 68 -116 122 -210 54 -93 120 -208 147
-255 28 -47 100 -172 161 -278 62 -106 125 -214 140 -240 15 -26 30 -54 34
-62 3 -8 11 -22 18 -30 7 -8 26 -40 42 -70 46 -84 67 -121 257 -448 97 -167
176 -306 176 -308 0 -2 12 -23 27 -47 15 -23 33 -51 39 -62 51 -92 77 -138
149 -260 44 -77 123 -213 174 -302 51 -90 97 -163 101 -163 3 0 7 -6 7 -12 0
-7 51 -101 113 -208 62 -107 121 -210 131 -228 11 -18 59 -102 107 -185 49
-84 119 -206 157 -272 114 -202 144 -242 220 -300 98 -74 239 -57 338 41 36
35 144 199 149 226 2 7 6 15 9 18 7 5 99 159 99 165 0 1 36 64 81 139 44 75
77 141 73 148 -4 6 -3 8 3 5 9 -6 78 103 74 117 0 3 6 14 15 24 17 18 125 201
170 287 l26 50 -81 138 c-45 76 -81 142 -81 147 0 6 -4 10 -8 10 -5 0 -23 28
-40 63 -18 34 -44 80 -58 102 -13 22 -29 49 -34 60 -6 11 -14 27 -20 35 -5 8
-55 94 -110 190 -55 96 -104 182 -109 190 -13 23 -21 18 -48 -30 -14 -25 -32
-56 -40 -69 -8 -12 -29 -48 -45 -80 -17 -31 -36 -63 -42 -71 -23 -30 -47 -80
-39 -80 4 0 3 -4 -2 -8 -16 -11 -66 -91 -107 -169 -12 -24 -25 -43 -28 -43 -3
0 -31 46 -63 103 -74 131 -100 176 -151 262 -22 39 -44 78 -48 88 -5 11 -13
15 -19 11 -8 -4 -9 -3 -5 4 6 11 -46 115 -55 109 -2 -1 -3 0 -2 1 2 5 -38 84
-52 102 -7 8 -26 40 -42 70 -43 80 -167 294 -173 300 -3 3 -11 16 -17 30 -7
14 -26 48 -43 75 -17 28 -33 57 -37 65 -4 8 -9 17 -12 20 -4 3 -12 16 -19 30
-7 14 -23 43 -37 65 -13 22 -29 50 -34 63 -6 12 -26 46 -44 75 -18 28 -36 59
-40 67 -4 8 -15 29 -25 45 -10 17 -30 50 -44 75 -36 64 -87 152 -98 170 -9 14
-35 59 -95 165 -16 28 -75 130 -132 227 -57 98 -103 182 -103 187 0 5 -3 11
-7 13 -5 2 -17 19 -27 38 -10 19 -33 60 -51 90 -189 325 -204 354 -192 370 7
8 19 29 28 45 9 17 34 62 57 100 22 39 40 74 40 79 0 5 4 12 10 15 5 3 20 26
34 51 14 25 72 126 130 225 57 99 107 187 111 195 4 8 18 33 32 55 14 22 35
58 47 80 12 22 27 48 33 57 5 9 32 55 58 102 26 47 52 88 57 91 6 3 10 15 10
25 0 10 4 20 8 22 16 7 63 99 56 111 -4 6 -4 9 1 5 11 -10 87 113 80 129 -2 7
0 12 6 10 5 -1 23 23 40 53 17 30 55 96 84 146 78 132 114 196 128 224 6 14
14 27 17 30 6 5 126 211 156 267 8 16 26 46 40 68 39 64 55 95 49 95 -3 0 3 9
13 20 25 27 68 111 64 125 -2 5 0 7 3 3 10 -10 176 282 168 295 -3 5 -1 7 4 4
6 -4 21 15 34 40 13 26 29 53 36 60 6 7 15 22 18 33 12 37 3 50 190 -279 11
-20 38 -67 60 -105 22 -37 51 -89 65 -113 14 -25 30 -45 35 -45 8 0 217 353
233 392 3 8 8 17 12 20 18 15 61 103 56 116 -3 8 -2 13 3 10 11 -7 21 5 59 75
16 32 37 68 45 80 32 50 68 115 80 142 6 15 15 27 19 27 4 0 8 5 8 11 0 6 10
24 21 41 21 29 21 30 3 70 -10 23 -23 46 -29 52 -5 7 -18 27 -29 46 -40 74
-69 125 -76 135 -4 6 -17 26 -28 45 -10 19 -42 75 -71 124 -28 49 -51 93 -51
97 0 5 -4 9 -10 9 -5 0 -10 4 -10 9 0 4 -30 61 -67 125 -38 64 -75 129 -83
144 -14 26 -70 122 -117 200 -12 21 -28 51 -37 67 -31 59 -127 144 -185 164
-41 14 -124 13 -170 -2z"/>
</g>
</svg>
