<?xml version="1.0" standalone="no"?>
<!DOCTYPE svg PUBLIC "-//W3C//DTD SVG 20010904//EN"
 "http://www.w3.org/TR/2001/REC-SVG-20010904/DTD/svg10.dtd">
<svg version="1.0" xmlns="http://www.w3.org/2000/svg"
 width="16.000000pt" height="16.000000pt" viewBox="0 0 16.000000 16.000000"
 preserveAspectRatio="xMidYMid meet">
<metadata>
Created by potrace 1.11, written by Peter Selinger 2001-2013
</metadata>
<g transform="translate(0.000000,16.000000) scale(0.001563,-0.001563)"
fill="#000000" stroke="none">
<path d="M2842 9668 c-24 -4 -60 -17 -80 -29 -82 -49 -119 -96 -249 -324 -44
-77 -133 -232 -197 -344 -65 -112 -127 -220 -138 -240 -11 -20 -24 -40 -28
-46 -4 -5 -20 -32 -35 -60 -16 -27 -38 -67 -49 -87 -20 -36 -148 -258 -166
-288 -5 -8 -86 -149 -182 -314 -168 -289 -196 -339 -322 -558 -33 -57 -68
-115 -78 -130 -11 -16 -16 -28 -13 -28 3 0 -2 -12 -13 -27 -29 -40 -131 -220
-134 -235 -2 -7 -8 -17 -14 -23 -6 -5 -22 -30 -35 -55 -13 -25 -27 -46 -31
-48 -5 -2 -8 -7 -8 -12 0 -4 -17 -37 -38 -71 -21 -35 -52 -89 -69 -119 -16
-30 -41 -73 -55 -95 -52 -84 -97 -173 -90 -180 4 -5 2 -5 -5 -1 -7 4 -14 -2
-18 -15 -4 -11 -20 -40 -36 -64 -16 -24 -29 -46 -29 -50 0 -4 -8 -19 -19 -33
-10 -15 -32 -52 -48 -82 -17 -30 -46 -83 -67 -117 -20 -35 -52 -91 -72 -125
-20 -35 -46 -79 -57 -98 -97 -166 -128 -225 -151 -290 -91 -251 -73 -600 41
-815 14 -27 83 -147 151 -265 69 -118 138 -240 155 -270 17 -30 38 -66 47 -80
9 -14 79 -134 156 -268 76 -133 144 -250 149 -260 6 -9 29 -51 53 -92 23 -41
47 -82 52 -90 5 -8 51 -87 101 -175 107 -186 238 -414 369 -640 51 -88 104
-180 118 -205 13 -25 29 -50 33 -56 5 -6 21 -33 35 -60 14 -27 56 -101 94
-164 51 -87 296 -511 415 -717 6 -10 23 -41 39 -70 16 -29 33 -50 39 -46 6 3
7 1 3 -6 -4 -6 5 -33 22 -59 16 -26 64 -108 106 -182 43 -74 83 -144 89 -155
7 -10 22 -36 35 -57 12 -22 27 -36 32 -33 5 3 7 0 4 -8 -7 -18 75 -93 129
-118 56 -25 142 -25 202 1 30 13 44 24 39 31 -5 8 -3 9 5 5 28 -18 101 81 232
311 13 23 45 78 72 124 26 45 47 86 47 90 0 5 3 9 8 9 11 0 32 52 25 64 -3 6
-2 8 2 3 8 -6 72 94 135 213 14 25 30 52 37 60 14 18 19 8 -87 190 -40 69 -84
145 -98 170 -25 46 -113 196 -151 260 -11 19 -24 42 -28 50 -4 8 -39 69 -77
135 -39 66 -77 132 -85 148 -8 15 -17 27 -20 27 -4 0 -15 -17 -26 -37 -11 -21
-30 -56 -44 -77 -13 -22 -36 -63 -52 -90 -15 -28 -30 -51 -33 -51 -8 0 -51 67
-65 102 -7 18 -17 33 -22 33 -5 0 -9 6 -9 13 0 6 -18 40 -40 75 -22 34 -40 64
-40 66 0 2 -36 65 -80 141 -44 76 -80 140 -80 144 0 4 -8 16 -18 27 -10 10
-19 21 -19 24 -3 18 -38 80 -45 80 -4 0 -8 5 -8 10 0 9 -92 173 -141 250 -5 8
-25 44 -45 80 -20 36 -48 85 -62 110 -13 25 -28 50 -32 55 -7 9 -18 27 -74
127 -12 20 -68 118 -126 218 -58 100 -112 194 -120 209 -9 14 -51 88 -95 164
-44 76 -87 150 -95 165 -8 15 -17 29 -20 32 -3 3 -15 23 -26 45 -12 22 -38 69
-59 105 -21 36 -45 79 -55 96 -88 154 -114 193 -123 187 -6 -3 -7 -1 -3 5 4 7
-19 57 -51 113 -103 179 -125 221 -119 232 3 7 17 30 30 52 14 22 35 60 48 85
13 25 26 47 29 50 3 3 23 36 45 75 21 38 44 77 49 87 23 39 102 175 126 218
14 25 32 56 41 70 16 26 150 257 188 325 13 22 31 54 41 70 10 17 25 44 34 60
8 17 37 68 65 114 27 46 50 88 50 92 0 5 5 9 10 9 6 0 10 9 10 20 0 11 5 20
10 20 6 0 10 4 10 9 0 7 44 86 90 161 5 8 31 53 58 100 27 47 82 144 124 215
41 72 78 137 81 145 4 8 15 27 25 42 31 47 72 120 72 128 0 4 7 13 15 20 8 7
12 16 9 21 -3 5 -1 9 3 9 5 0 19 19 31 43 12 23 26 49 32 57 9 13 30 50 91
158 11 17 27 47 38 65 10 17 47 82 81 142 34 61 69 118 78 128 8 9 12 17 8 17
-3 0 6 18 20 40 15 22 30 38 33 35 4 -2 16 -22 26 -45 10 -22 22 -40 27 -40 4
0 8 -5 8 -10 0 -13 83 -159 91 -160 3 0 14 17 25 38 10 20 22 39 27 40 4 2 7
8 7 12 0 5 14 33 31 62 46 77 129 221 129 223 0 1 29 51 65 111 36 60 65 114
65 121 0 6 4 13 8 15 4 2 51 78 103 169 78 135 94 170 86 185 -55 104 -438
760 -464 797 -19 26 -40 44 -45 40 -6 -3 -8 -1 -5 4 7 11 -36 48 -80 72 -36
19 -105 28 -151 19z"/>
<path d="M4323 9665 c-93 -21 -169 -89 -241 -217 -15 -26 -90 -156 -167 -289
-77 -134 -149 -259 -160 -278 -11 -20 -22 -38 -25 -41 -3 -3 -12 -19 -21 -35
-14 -27 -95 -169 -264 -460 -70 -121 -194 -335 -226 -391 -13 -23 -93 -161
-177 -307 -85 -146 -153 -269 -152 -272 1 -4 -7 -13 -17 -21 -10 -7 -14 -14
-9 -14 5 0 2 -8 -6 -17 -16 -19 -128 -211 -128 -220 0 -3 -8 -17 -19 -31 -10
-15 -30 -47 -43 -72 -50 -88 -347 -604 -393 -680 -18 -30 -44 -75 -57 -100
-14 -25 -34 -59 -44 -77 -10 -17 -43 -73 -72 -125 -29 -51 -57 -100 -62 -108
-31 -51 -191 -332 -207 -365 -22 -43 -52 -141 -60 -190 -2 -16 -8 -44 -13 -61
-14 -54 -11 -284 4 -369 15 -81 45 -185 66 -227 57 -112 185 -326 193 -321 6
3 7 1 4 -4 -4 -6 15 -48 41 -93 26 -45 58 -100 71 -123 90 -160 176 -303 185
-309 6 -4 8 -8 4 -8 -4 0 6 -24 24 -53 43 -73 136 -234 165 -285 13 -23 53
-93 89 -154 35 -61 64 -112 64 -115 0 -2 15 -27 33 -56 18 -29 58 -95 88 -147
29 -52 59 -104 66 -115 7 -11 16 -27 20 -35 4 -8 63 -112 132 -230 68 -118
132 -228 141 -245 21 -37 119 -207 142 -245 9 -15 96 -167 194 -336 97 -170
204 -353 236 -407 32 -55 58 -100 58 -102 0 -10 67 -114 71 -110 3 2 6 -6 6
-18 1 -12 10 -27 19 -34 10 -7 14 -13 10 -13 -5 0 -1 -11 8 -24 8 -14 24 -40
34 -58 60 -105 168 -289 190 -323 36 -57 109 -124 160 -147 50 -23 148 -26
184 -6 61 33 97 61 91 71 -3 6 -1 7 5 3 6 -4 28 16 50 46 39 52 222 363 222
377 0 4 6 13 12 19 7 7 29 42 48 77 19 35 72 127 117 204 l82 142 -19 32 c-11
17 -29 50 -41 72 -12 22 -27 43 -33 47 -6 4 -8 8 -4 8 4 0 -14 35 -39 78 -26
42 -53 89 -60 105 -8 15 -19 24 -25 21 -7 -4 -8 -2 -4 4 8 13 -47 120 -71 139
-8 6 -14 15 -15 20 0 11 -84 163 -129 233 -9 14 -30 50 -47 80 -54 99 -67 120
-72 120 -3 0 -14 -17 -25 -37 -35 -67 -117 -208 -124 -216 -7 -6 -106 149
-120 188 -2 5 -9 17 -16 25 -7 8 -26 40 -42 70 -74 136 -278 485 -285 488 -4
2 -8 8 -8 13 0 5 -31 64 -70 130 -38 66 -70 122 -70 123 0 2 -18 34 -41 71
-44 73 -44 73 -143 248 -37 64 -71 115 -77 112 -5 -3 -6 0 -3 8 3 8 -10 39
-29 68 -19 30 -44 72 -56 94 -11 22 -32 58 -46 80 -14 22 -28 47 -32 55 -15
31 -215 375 -222 380 -3 3 -7 10 -8 16 -1 7 -17 36 -34 65 -29 49 -222 383
-271 469 -11 19 -41 70 -65 113 -25 42 -42 83 -39 90 3 6 17 30 31 52 14 22
31 51 38 65 6 14 14 27 17 30 3 3 11 16 18 30 6 14 16 32 22 40 18 27 130 222
130 226 0 2 17 32 38 66 21 35 41 70 45 78 4 8 18 33 32 55 14 22 32 56 42 75
9 19 20 37 24 40 3 3 19 28 33 55 15 28 41 73 57 100 16 28 33 57 36 65 4 8
18 30 30 49 13 19 21 41 19 48 -3 7 -1 12 5 10 5 -1 22 21 37 48 15 28 30 52
35 53 4 2 7 8 7 13 0 7 57 108 90 159 6 8 13 22 17 30 4 8 33 59 65 113 32 55
58 103 58 107 0 5 6 15 13 22 7 7 28 40 46 73 18 33 36 65 41 70 4 6 21 35 37
65 44 81 69 124 97 169 15 22 26 45 26 50 0 5 3 11 8 13 4 2 16 21 27 43 10
22 24 47 31 55 6 8 24 38 39 65 14 28 40 72 56 99 17 27 28 55 25 62 -3 8 0
13 6 11 10 -2 23 18 71 108 12 22 25 42 28 45 3 3 19 30 36 60 28 52 62 110
90 155 7 11 22 39 33 62 11 23 24 44 29 48 5 3 43 -53 83 -124 44 -77 78 -127
85 -123 5 4 18 23 28 42 10 19 33 61 52 92 20 33 32 62 27 69 -4 7 -3 10 4 5
13 -8 64 82 55 98 -3 6 -2 8 2 3 8 -6 60 68 53 75 -2 2 3 10 10 18 13 15 106
171 133 223 8 15 53 95 101 177 l87 150 -81 138 c-44 75 -94 162 -110 192 -17
30 -35 58 -40 61 -5 3 -8 8 -6 10 6 8 -225 397 -263 441 -75 88 -170 124 -266
103z"/>
<path d="M5835 9669 c-105 -14 -179 -79 -278 -247 -37 -63 -67 -116 -67 -118
0 -2 -11 -23 -26 -45 -14 -22 -33 -55 -43 -72 -10 -18 -108 -187 -218 -377
-194 -335 -316 -547 -378 -656 -16 -29 -75 -131 -131 -226 -55 -95 -104 -180
-107 -188 -4 -8 -16 -28 -26 -45 -30 -49 -191 -327 -191 -331 0 -2 -16 -28
-35 -58 -19 -30 -35 -58 -35 -61 0 -3 -10 -22 -23 -43 -31 -49 -88 -146 -119
-202 -26 -46 -162 -283 -178 -310 -12 -21 -162 -281 -176 -305 -46 -83 -68
-121 -74 -130 -4 -5 -17 -26 -28 -45 -18 -32 -37 -65 -125 -217 -151 -260
-228 -395 -249 -438 -28 -55 -63 -165 -73 -235 -4 -25 -9 -54 -11 -65 -6 -26
-6 -254 0 -263 2 -4 6 -29 10 -57 10 -89 36 -168 84 -265 77 -152 195 -350
205 -343 6 3 7 1 3 -5 -4 -6 24 -64 61 -127 37 -64 81 -140 96 -168 16 -29 39
-68 51 -87 20 -30 48 -79 136 -234 9 -17 38 -66 64 -109 25 -43 46 -80 46 -82
0 -2 54 -97 121 -212 67 -114 131 -226 144 -248 53 -94 208 -361 215 -370 4
-5 21 -35 37 -65 44 -80 66 -119 112 -195 23 -37 41 -68 41 -70 0 -3 118 -207
170 -295 32 -54 50 -85 105 -185 15 -27 31 -54 35 -60 7 -9 202 -345 258 -445
14 -25 74 -130 135 -235 271 -469 286 -491 374 -535 57 -29 63 -30 126 -31 60
0 124 30 181 85 39 38 93 109 109 146 4 8 15 29 25 45 10 17 34 57 52 89 18
33 57 99 86 148 30 49 54 91 54 94 0 2 26 48 58 102 32 53 72 122 87 152 16
30 35 62 43 71 11 14 6 29 -40 108 -29 50 -66 115 -83 144 -16 29 -38 64 -47
77 -10 14 -18 28 -18 32 0 4 -20 40 -43 80 -24 40 -64 108 -89 150 -25 43 -49
74 -53 70 -5 -4 -5 -1 0 6 4 9 -1 25 -14 43 -11 15 -21 30 -21 33 0 6 -72 129
-80 136 -3 3 -16 26 -29 53 -26 51 -35 57 -45 30 -5 -16 -23 -48 -77 -138 -10
-16 -28 -48 -40 -69 l-21 -40 -19 25 c-10 13 -19 27 -19 32 0 4 -11 24 -23 45
-13 20 -35 57 -49 82 -14 25 -58 101 -98 170 -72 123 -92 158 -128 223 -20 34
-73 124 -109 185 -11 21 -28 48 -35 62 -8 14 -24 41 -35 60 -11 19 -35 62 -54
95 -18 33 -37 62 -41 63 -4 2 -8 8 -8 14 0 5 -16 37 -36 71 -42 71 -58 99
-104 182 -19 33 -36 62 -39 65 -4 3 -13 19 -22 35 -29 56 -44 80 -54 87 -5 4
-6 8 -1 8 5 0 3 8 -5 18 -8 9 -20 28 -27 41 -8 13 -22 39 -33 57 -10 19 -28
49 -38 68 -11 18 -38 64 -60 101 -23 37 -41 69 -41 72 0 3 -8 17 -18 31 -11
15 -32 52 -48 82 -16 30 -43 79 -62 107 -18 29 -37 63 -42 75 -6 13 -19 37
-30 53 -11 17 -23 37 -27 45 -24 47 -78 135 -85 138 -4 2 -8 8 -8 14 0 10 -78
149 -89 158 -3 3 -7 11 -9 19 -2 8 -11 26 -21 40 -10 14 -31 49 -46 76 -15 28
-47 84 -72 127 l-44 76 22 44 c12 23 27 49 33 57 6 7 27 42 46 77 19 35 73
128 119 206 46 79 84 149 84 156 0 6 4 12 8 12 4 0 27 35 50 78 24 42 48 85
54 94 38 62 98 175 98 185 0 7 3 10 7 8 4 -3 19 17 32 43 14 26 82 145 152
265 69 120 126 223 126 228 0 5 4 9 8 9 4 0 15 15 23 33 9 17 58 104 109 192
51 88 104 180 118 205 14 25 34 57 44 72 11 16 16 33 12 39 -4 7 -3 9 4 5 6
-3 13 3 17 14 4 11 22 44 41 73 19 28 34 55 34 59 0 4 14 27 30 51 17 25 30
47 30 51 0 3 25 46 55 97 30 50 55 93 55 94 0 1 29 53 65 114 36 62 65 116 65
121 0 4 4 10 8 12 8 3 102 163 102 173 0 10 24 30 38 33 8 1 11 -2 7 -8 -8
-13 39 -92 50 -83 4 5 5 2 1 -4 -5 -10 53 -127 82 -163 4 -5 8 1 56 85 16 27
40 68 53 90 12 22 28 51 35 65 7 14 15 27 19 30 3 3 16 25 29 50 14 25 31 53
39 63 8 9 10 17 5 17 -5 0 -4 4 2 8 6 4 22 27 35 51 59 107 113 201 196 338
23 40 43 75 43 78 0 3 11 22 25 43 l25 38 -46 80 c-25 43 -49 86 -54 94 -47
79 -90 153 -90 155 0 2 -17 32 -37 67 -21 35 -47 79 -58 99 -178 317 -230 388
-309 427 -65 33 -94 39 -151 31z"/>
<path d="M7305 9671 c-54 -14 -110 -48 -152 -94 -54 -58 -54 -59 -274 -443
-42 -74 -410 -709 -420 -724 -5 -8 -133 -231 -285 -495 -410 -713 -760 -1318
-819 -1420 -76 -129 -455 -787 -503 -873 -61 -108 -91 -197 -118 -352 -21
-122 1 -365 45 -494 28 -80 45 -112 183 -352 42 -71 261 -451 488 -844 227
-393 450 -780 496 -859 46 -79 84 -145 84 -147 0 -3 11 -22 24 -43 20 -30 285
-491 356 -615 9 -17 45 -78 79 -134 33 -57 61 -105 61 -107 0 -1 38 -68 85
-148 46 -80 95 -163 107 -185 392 -682 404 -699 502 -749 127 -64 266 -14 365
132 23 33 362 616 942 1624 49 84 89 158 89 162 0 5 5 9 10 9 6 0 10 4 10 8 0
5 55 103 121 218 67 115 135 234 152 264 17 30 117 204 222 385 105 182 247
427 315 545 68 118 189 328 269 465 80 138 158 281 173 318 91 215 95 551 10
771 -16 39 -124 238 -242 441 -117 204 -221 384 -230 400 -20 35 -154 266
-445 770 -179 310 -734 1271 -785 1360 -252 439 -590 1020 -610 1050 -83 120
-203 182 -305 156z m325 -2121 c144 -250 274 -475 288 -500 14 -25 157 -273
319 -552 161 -279 301 -522 312 -540 10 -18 123 -214 250 -435 l233 -403 -365
-632 c-201 -348 -374 -649 -384 -668 -11 -19 -33 -57 -50 -85 -34 -57 -65
-110 -370 -640 -462 -800 -506 -876 -508 -873 -3 3 -159 271 -199 341 -13 23
-78 136 -145 251 -66 115 -121 211 -121 213 0 2 -11 20 -24 41 -12 20 -193
332 -401 692 -208 360 -399 692 -426 738 -27 45 -49 87 -49 92 0 6 -4 10 -10
10 -5 0 -10 4 -10 9 0 5 -65 122 -145 260 l-145 251 137 237 c75 131 184 319
241 418 58 99 114 196 125 215 11 19 222 385 469 814 247 428 460 796 471 816
178 309 232 399 238 393 3 -5 124 -213 269 -463z"/>
<path d="M7271 6251 c-47 -80 -141 -243 -209 -361 -68 -118 -136 -235 -150
-260 -14 -25 -62 -108 -107 -185 -45 -77 -105 -182 -134 -233 l-53 -92 85
-148 c47 -81 117 -203 157 -272 210 -364 265 -459 286 -495 12 -22 57 -101
101 -175 43 -74 84 -148 92 -163 17 -33 6 -48 137 181 54 95 107 187 118 205
10 18 104 181 209 362 104 182 212 367 238 413 27 45 49 86 49 91 0 8 -158
286 -207 363 -12 21 -23 40 -23 42 0 3 -14 29 -31 58 -18 29 -131 224 -251
433 -121 209 -221 381 -221 381 -1 1 -40 -64 -86 -145z"/>
</g>
</svg>
